<?xml version="1.0" standalone="no"?>
<!DOCTYPE svg PUBLIC "-//W3C//DTD SVG 20010904//EN"
 "http://www.w3.org/TR/2001/REC-SVG-20010904/DTD/svg10.dtd">
<svg version="1.0" xmlns="http://www.w3.org/2000/svg"
 width="992.000000pt" height="983.000000pt" viewBox="0 0 992.000000 983.000000"
 preserveAspectRatio="xMidYMid meet">

<g transform="translate(0.000000,983.000000) scale(0.100000,-0.100000)"
fill="#000000" stroke="none">
<path d="M4455 9560 c-114 -15 -233 -74 -323 -161 -85 -82 -133 -179 -147
-295 l-7 -61 69 -7 c37 -4 100 -9 138 -11 39 -3 120 -7 180 -10 319 -17 547
-57 651 -115 l54 -29 13 32 c30 71 41 161 28 228 -39 202 -184 352 -401 417
-50 15 -185 21 -255 12z"/>
<path d="M5805 8855 c-195 -48 -366 -197 -419 -365 -17 -55 -49 -137 -82 -208
-13 -29 -24 -55 -24 -58 0 -13 -167 -339 -206 -401 -8 -12 -22 -37 -33 -56
-10 -19 -25 -45 -33 -58 -7 -13 -15 -26 -18 -29 -6 -6 -24 -36 -45 -72 -23
-41 -197 -303 -265 -398 -57 -80 -70 -104 -99 -173 -14 -36 -14 -158 0 -194
33 -82 59 -120 115 -172 100 -92 245 -138 404 -128 158 9 284 60 393 158 58
52 97 103 252 329 22 32 70 102 108 155 37 53 67 101 67 105 0 5 4 10 8 12 7
3 53 68 286 406 54 78 89 129 198 286 85 123 117 188 134 278 50 254 -151 524
-431 583 -83 17 -240 18 -310 0z"/>
<path d="M3170 8827 c-3 -2 -41 -7 -85 -11 -147 -11 -228 -40 -370 -132 -126
-81 -251 -237 -305 -379 -38 -99 -47 -159 -65 -450 -2 -33 -10 -139 -17 -235
-19 -268 -16 -1078 6 -1300 34 -359 44 -428 81 -615 34 -169 92 -385 124 -460
5 -11 16 -36 24 -55 34 -80 64 -143 137 -295 94 -193 173 -359 230 -480 23
-49 67 -140 96 -202 30 -62 54 -119 54 -127 0 -14 -25 -85 -50 -143 -6 -13
-14 -34 -20 -48 -5 -14 -14 -36 -20 -50 -5 -14 -14 -35 -19 -47 -5 -13 -31
-77 -56 -143 -63 -160 -61 -155 -79 -196 -8 -20 -31 -78 -51 -129 -20 -51 -43
-109 -51 -129 -9 -20 -20 -46 -25 -58 -5 -13 -13 -34 -19 -48 -5 -14 -14 -35
-19 -47 -5 -13 -15 -39 -22 -58 -6 -19 -21 -55 -32 -79 -10 -25 -57 -142 -104
-260 -47 -119 -92 -232 -100 -251 -8 -19 -19 -44 -23 -55 -10 -27 -60 -155
-70 -180 -4 -11 -13 -33 -20 -50 -7 -16 -16 -39 -20 -50 -5 -11 -17 -40 -28
-65 -10 -25 -31 -79 -46 -120 -30 -82 -36 -97 -60 -152 -9 -20 -32 -78 -52
-130 -20 -51 -47 -120 -61 -153 -14 -33 -29 -69 -33 -80 -4 -11 -13 -33 -20
-50 -7 -16 -17 -41 -23 -55 -5 -14 -13 -34 -18 -45 -5 -11 -52 -130 -105 -265
-95 -241 -106 -270 -137 -340 -26 -58 -77 -194 -77 -204 0 -5 -7 -18 -17 -28
-16 -17 -4 -18 353 -20 203 -1 401 -3 439 -4 39 -1 648 -5 1355 -9 707 -3
1496 -10 1754 -16 444 -9 469 -9 482 8 7 10 14 25 14 34 0 8 15 62 34 120 41
126 99 313 162 514 25 83 57 182 69 220 20 60 46 148 50 165 1 6 67 216 95
300 10 30 25 82 35 115 9 33 25 85 35 115 10 30 36 114 58 185 95 307 136 436
166 528 l33 98 119 107 c65 59 214 201 329 317 230 230 276 280 440 470 33 39
62 72 66 75 13 11 257 321 317 402 34 47 62 90 62 96 0 6 4 12 9 14 12 4 121
173 121 187 0 6 5 11 10 11 6 0 10 4 10 9 0 6 14 30 30 55 17 24 54 91 84 148
29 57 58 112 64 123 15 25 72 154 72 161 0 3 11 30 25 60 14 30 25 61 25 69 0
9 4 23 9 33 15 30 28 66 41 112 7 25 16 56 20 70 5 14 11 41 14 60 3 19 7 44
10 55 20 92 28 239 23 411 -3 107 -8 197 -11 202 -3 5 -6 44 -6 88 -2 112 -13
139 -66 170 -82 48 -89 43 -450 -336 -60 -63 -132 -142 -159 -175 -28 -33 -60
-71 -73 -85 -21 -22 -113 -131 -521 -619 -57 -67 -137 -151 -177 -185 -85 -73
-245 -156 -349 -182 -136 -35 -264 -39 -516 -18 -77 6 -111 -7 -199 -78 -185
-149 -292 -224 -425 -298 -33 -18 -74 -41 -91 -51 -17 -9 -69 -30 -115 -45
-222 -74 -363 -2 -410 210 -11 52 -17 60 -46 72 -44 19 -67 18 -115 -6 -54
-26 -80 -25 -115 4 -55 47 -102 163 -73 181 6 4 -11 17 -37 31 -49 24 -80 62
-103 125 -12 34 -11 40 18 91 34 59 40 90 20 105 -7 6 -54 9 -104 7 -82 -3
-96 -1 -125 19 -45 30 -79 83 -79 122 0 39 11 77 49 168 38 88 101 306 101
345 0 61 -66 110 -181 132 -72 14 -79 22 -181 210 -37 68 -85 197 -101 270
-33 147 -37 176 -37 278 0 97 18 239 36 285 5 14 -41 66 -213 240 -210 212
-221 224 -233 276 -36 153 38 334 154 375 23 8 82 17 131 20 335 22 681 98
874 194 142 71 238 271 210 442 -25 157 -139 301 -293 369 -102 46 -152 55
-391 72 -88 6 -178 13 -200 15 -65 6 -860 17 -865 11z"/>
<path d="M6975 8144 c-106 -16 -267 -109 -330 -189 -17 -21 -39 -50 -51 -64
-23 -29 -119 -163 -179 -250 -71 -103 -109 -156 -114 -161 -3 -3 -10 -13 -16
-22 -5 -9 -41 -60 -80 -113 -124 -170 -215 -299 -252 -355 -20 -30 -39 -57
-43 -60 -3 -3 -17 -21 -30 -40 -14 -19 -30 -42 -37 -50 -7 -8 -25 -34 -40 -57
-16 -22 -51 -75 -80 -116 -87 -124 -115 -241 -90 -363 20 -93 52 -155 120
-229 82 -90 205 -155 326 -173 102 -15 267 0 321 29 8 5 36 17 61 28 65 28
145 97 214 182 32 41 62 76 65 79 3 3 24 28 45 55 22 28 43 52 46 55 3 3 65
82 139 175 74 94 138 172 142 173 4 2 8 8 8 13 0 5 6 17 14 26 207 255 475
634 523 740 23 50 26 72 27 158 1 107 -12 159 -59 239 -24 41 -137 160 -181
190 -38 27 -138 76 -154 76 -9 0 -21 5 -27 11 -11 11 -233 21 -288 13z"/>
<path d="M4560 7558 c-41 -17 -84 -34 -95 -38 -110 -41 -374 -85 -575 -95
-172 -8 -197 -13 -203 -36 -4 -13 9 -32 45 -64 71 -63 143 -102 323 -175 43
-18 157 -40 202 -40 107 0 237 120 354 326 63 112 78 142 72 148 -12 11 -48 4
-123 -26z"/>
<path d="M7870 7239 c-173 -48 -272 -121 -380 -279 -14 -19 -28 -39 -33 -45
-4 -5 -32 -44 -62 -85 -30 -41 -59 -80 -65 -87 -5 -7 -10 -16 -10 -22 0 -5 -3
-11 -8 -13 -6 -2 -54 -66 -116 -153 -8 -11 -34 -47 -58 -80 -24 -33 -52 -73
-62 -90 -11 -16 -24 -35 -30 -41 -6 -6 -29 -37 -51 -68 -22 -32 -54 -77 -72
-101 -38 -52 -73 -152 -73 -208 0 -156 119 -308 288 -370 66 -23 230 -33 284
-16 146 47 146 46 666 563 313 312 367 370 395 426 40 79 62 173 54 238 -30
254 -264 444 -543 441 -49 0 -105 -5 -124 -10z"/>
</g>
</svg>
